<svg xmlns="http://www.w3.org/2000/svg"><defs><font horiz-adv-x="641"><font-face units-per-em="2048" ascent="1638" descent="-410"/><glyph horiz-adv-x="2048"/><glyph horiz-adv-x="2048"/><glyph horiz-adv-x="2048"/><glyph horiz-adv-x="382"/><glyph horiz-adv-x="382"/><glyph horiz-adv-x="382"/><glyph unicode="!" horiz-adv-x="382" d="M188 0v184h93v-184h-93zm0 676v770h99v-784l-23-279h-57z"/><glyph unicode=""" horiz-adv-x="557" d="M80 1516h119l-37-590h-43zm278 0h119l-39-590h-43z"/><glyph unicode="#" horiz-adv-x="1052" d="M41 539v82h283l20 229h-270v84h278l43 512h90l-43-512h203l43 512h86l-43-512h279v-84h-287l-18-229h280v-82h-289l-43-539h-88l47 539h-204l-46-539h-90l45 539h-276zm375 82h202l19 229h-203z"/><glyph unicode="$" horiz-adv-x="733" d="M61 432v27h91v-78q0-110 26-180 45-111 189-111 103 0 152.5 60t49.5 184q0 105-34.5 170.5t-147.5 171.5q-164 156-217 223-37 48-53.5 107t-16.5 151q0 269 232 287v102h63v-102q64-8 102.5-26t67.5-54q34-40 47-95.5t13-162.5v-29h-93v43q0 96-18 148-36 88-152 88-89 0-127-48t-38-157q0-80 18-125 10-30 35-65 53-69 180-185 140-131 187-218t47-214q0-160-66-244t-201-98v-147h-63v147q-134 11-201 96-41 53-56.5 123.5t-15.5 210.5z"/><glyph unicode="%" horiz-adv-x="1193" d="M41 752v475q0 71 12 110 13 45 57 79.5t123 33.5q72 0 115-29 33-21 49.5-56.5t18.5-61 2-73.5v-480q0-59-15-105-42-113-172-113-143 0-180 127-10 33-10 93zm80 8q0-25 1.5-41t6.5-36.5 17-36 32-25.5q23-13 53-13 47 0 80 33 31 35 31 109v477q0 1 .5 12t0 17.5-1.5 20-4 23-8 21.5-13.5 20.5-19.5 16-27 11-36 3.5q-32 0-55-9.5t-33.5-21.5-16.5-32.5-6.5-31.5-.5-30v-487zm65-881l752 1731 51-25-751-1728zm580 330v475q0 39 2 57 10 67 34 100 20 26 48 42 44 24 111 24t110-26q26-16 41.5-37.5t22-51 7.5-49 1-56.5v-480q0-59-8-92-5-20-16-39.5t-31-40-54.5-33-77.5-12.5q-137 0-176 114-14 43-14 105zm80 8q0-30 2-49t12.5-43.5 30.5-38.5q30-20 65-20 37 0 62 16 49 33 49 125v477q0 53-8 80-24 65-101 65-65 0-94-41-12-17-15-33.5t-3-56.5v-481z"/><glyph unicode="&" horiz-adv-x="894" d="M66 270q0 61 14 115t46.5 108.5 59 89.5 76.5 95q0 1-7.5 21t-12.5 35.5-13.5 42.5-14.5 52.5-12 56-9 62-3 60.5q0 111 56 178 22 29 51 43 35 20 90 20 81 0 127.5-48t46.5-128q0-49-20-110-20-56-58.5-117.5t-120.5-175.5q105-242 254-477 20 29 31.5 49.5t26.5 61.5 24 93q20 113 15 303h90q0-81-2-132t-9.5-124-26.5-135.5-50-115.5q-8-15-43-66 45-34 84.5-43t101.5-4v-84q-106 0-153 13t-99 52q-14-14-43-32-81-47-194-47-132 0-209 67-94 84-94 221zm92 11q0-78 35.5-127.5t76.5-67.5q46-20 109-20 104 0 172 59l-30 45-40 61q-18 30-50.5 91t-35.5 67q-8 17-25.5 48.5t-25.5 47.5q-17 36-45 97-41-52-51-68-90-127-90-233zm118 718q0-76 27-170 10-33 25-63 88 121 116 188 29 64 29 115 0 42-24 72t-66 30q-49 0-78.5-43.5t-28.5-128.5z"/><glyph unicode="'" horiz-adv-x="280" d="M80 1516h119l-37-590h-43z"/><glyph unicode="(" horiz-adv-x="468" d="M59 596q0 186 59 379t165 342q39 53 106 131v-115q-43-62-65-98-80-132-126-311.5t-46-339.5q0-202 62-403.5t179-348.5v-119q-85 93-117 140-101 148-159 352t-58 391z"/><glyph unicode=")" horiz-adv-x="468" d="M76 1331v119q57-56 114-137 103-149 161.5-351.5t58.5-392.5q0-180-55.5-369t-155.5-333q-23-33-121-150v115q114 144 176.5 348t62.5 400q0 145-36 304.5t-99 284.5q-38 78-106 162z"/><glyph unicode="*" horiz-adv-x="624" d="M59 1231l25 78 186-52v197h82v-201l191 66 26-74-192-71 117-164-64-49-121 161-106-161-66 49 109 166z"/><glyph unicode="+" horiz-adv-x="1142" d="M172 565v84h354v377h92v-377h353v-84h-353v-377h-92v377h-354z"/><glyph unicode="," horiz-adv-x="299" d="M104 0v186h93v-186q0-72-18-113.5t-75-70.5v45q24 16 35.5 41.5t13 43 1.5 54.5h-50z"/><glyph unicode="-" horiz-adv-x="507" d="M72 555v86h362v-86h-362z"/><glyph unicode="." horiz-adv-x="299" d="M106 0v184h91v-184h-91z"/><glyph unicode="/" d="M70 0l409 1446h92l-407-1446h-94z"/><glyph unicode="0" horiz-adv-x="724" d="M74 326v804q0 88 14 136 11 37 30.5 67.5t41 49.5 49 32.5 49.5 20.5 48.5 11 40 4.5 28.5.5q157 0 229-100 51-72 51-242v-803q0-67-12-108-27-96-102.5-147.5t-178.5-51.5q-94 0-165.5 45.5t-102.5 132.5q-20 62-20 148zm94 20q0-42 2-66t9-56.5 25.5-56.5 47.5-44q47-33 110-33 21 0 43 4.5t51 16.5 54 40 39 68q12 40 12 88v840q0 105-44 159t-148 54q-151 0-189-117-12-43-12-113v-784z"/><glyph unicode="1" horiz-adv-x="724" d="M102 1155v80q88 12 145 57t85 97q4 8 18 49h92v-1438h-102v1260q-30-25-45-35-15-11-30.5-20t-28-15-28.5-11.5-24.5-8.5-24.5-6-21-4-20-3-16-2z"/><glyph unicode="2" horiz-adv-x="724" d="M84 0v106q1 3 7 24t11 32q33 79 125 207 17 25 64.5 91.5t72 102.5 57 93.5 52.5 107.5q27 67 38 131.5t11 185.5v35q0 48-3 80t-19 71.5-45 63.5q-35 31-93 31-94 0-133-80-28-52-28-205v-98h-90v137q0 104 12 154 6 28 20 54.5t40 56.5 72.5 48.5 106.5 18.5q88 0 150-45 64-48 83-118t19-171v-80q0-119-18-200-15-72-57.5-155.5t-75.5-133-97-137.5q-12-17-18-25-97-133-123-180-22-40-55-117h455v-86h-541z"/><glyph unicode="3" horiz-adv-x="724" d="M70 440h92q0-43 4-133 3-49 7-78.5t22-68 51-60.5q43-30 114-30 41 0 66 10 39 13 70 46.5t43 72.5q14 41 14 98v80q0 85-8 153-13 103-88 146-41 25-84.5 36t-130.5 15l2 94q119 0 194 58 1 1 9.5 8.5t15.5 14.5 16 19 15 23q18 36 18 88v121q0 38-4 78-19 127-156 127-56 0-90-23-38-25-49.5-65t-11.5-99v-151h-88v158q0 88 20 141 26 66 88 96.5t137 30.5q94 0 150-40.5t76-90.5q20-53 20-137v-138q0-53-10-88-6-21-14.5-39.5t-21-33.5-23.5-27-27-22.5-26.5-17.5-27-14-23-9.5-20.5-7.5l-14-5q20-3 45-10 122-31 170-137 16-36 22.5-70t6.5-96v-154q0-80-14-133-14-51-43-89t-58.5-57-66.5-30-60-13.5-47-2.5q-76 0-137.5 32.5t-97.5 96.5q-26 47-34 106.5t-12 186.5q-1 22-1 34z"/><glyph unicode="4" horiz-adv-x="724" d="M39 461v94l373 881h127v-889h172v-86h-172v-461h-95v461h-405zm92 86h313v756z"/><glyph unicode="5" horiz-adv-x="724" d="M94 309v146h90v-113q0-126 19-174 12-34 46.5-61t96.5-27q82 0 123 41 37 34 47 89.5t10 170.5v299q0 119-49 168-39 41-108 41-95 0-140-64-30-42-30-133h-76v748h475v-88h-383v-430q82 55 164 55 114 0 180-84 37-47 48-104.5t11-137.5v-272q0-149-18-215-8-29-22.5-55t-41.5-54-73.5-45-106.5-18q-97 0-161 43-28 19-48 45t-30 50-15.5 58.5-6.5 58.5-1 62z"/><glyph unicode="6" horiz-adv-x="724" d="M98 328v827q0 76 21 137 64 166 276 166 23 0 50-3t75-23 78-54q27-31 41-79.5t16-81.5 2-89v-67l-94 2q0 107-8 164-2 16-6.5 33t-22.5 44-47 42q-35 20-90 20-62 0-110-29-88-53-86-193v-353q23 20 47 36 77 52 170 52 134-2 202-103 26-41 34.5-94.5t8.5-159.5v-266l-1-21q-2-21-6-42.5t-11-40.5q-15-42-44-74t-58.5-47.5-65-25-56-11.5-38.5-2q-147 0-221 94-26 33-39 78t-15 77-2 87zm92 12q0-41 1.5-64t8-58.5 23-61 43.5-43.5q48-29 107-29 73 0 115.5 31t56.5 69q16 40 16 97v301q0 126-59 174-38 32-99 32-44 0-88-18t-73-49q-52-54-52-168v-213z"/><glyph unicode="7" horiz-adv-x="724" d="M96 1350v90h555v-90q-61-135-114-273-59-155-110-353.5t-71-354.5q-12-102-12-205v-164h-100v96q0 148 14 272.5t66 336.5q36 147 77 270.5t70 190.5 70 155q5 9 8 15.5t6 13.5h-459z"/><glyph unicode="8" horiz-adv-x="724" d="M84 305v248q0 46 10 98 9 40 27 69t43.5 47 39.5 25.5 38 16.5q-38 17-74 45-31 26-46.5 64t-16.5 55-1 47v201q0 62 17 108 21 53 81.5 92t162.5 39q119 0 184-49 36-24 55-68 23-57 23-149v-168q0-54-11-90-14-52-46.5-77t-92.5-48q45-17 72.5-35.5t50.5-52.5q28-40 36.5-86.5t8.5-110.5v-264q0-54-12-98-13-48-42-83.5t-58.5-53-66.5-27.5-58-12-41-2q-69 0-132 24.5t-100 75.5q-33 44-42 95t-9 124zm94 14q0-94 18.5-142t63.5-75q51-28 107-28 60 2 104 30 48 28 63 73t15 112v254q0 31-2 47-7 92-70 139-45 35-108 35-59 0-99-23-56-27-74-73t-18-117v-232zm21 697q0-45 10-70 19-45 62.5-68.5t93.5-23.5q55 0 98.5 27.5t60.5 79.5q8 24 8 73v148q0 76-12 108-30 84-162 84-51 0-88-18-43-21-57-55t-14-87v-198z"/><glyph unicode="9" horiz-adv-x="724" d="M68 301v88h94v-113q0-37 8-69 4-22 13.5-41t27.5-40 51-33.5 76-12.5q61 0 108 24 55 28 73 73.5t18 115.5v369q-25-25-52-41-75-48-166-48-23 0-48.5 3t-70.5 22.5-73 52.5q-35 40-46 88t-11 113v256q0 47 1 72t7 65.5 17 66 33.5 54 55.5 49.5q73 45 170 45 153 0 224-94 26-33 38-80.5t13.5-76.5 1.5-89v-819q0-86-19-141-18-57-56.5-95.5t-84.5-53.5-75.5-20-55.5-5q-20 0-39.5 1.5t-54.5 10.5-63 24-55.5 46.5-41.5 74.5q-18 53-18 158zm98 530q0-34 12-71 17-45 54-70.5t85-25.5q49 0 88.5 15t63 39 37 45.5 20.5 43.5q13 44 13 125v194q0 101-21 152-17 36-59 63t-111 27q-15 0-34-3.5t-48-13.5-53.5-34.5-36.5-59.5q-10-33-10-75v-351z"/><glyph unicode=":" horiz-adv-x="382" d="M188 0v184h91v-184h-91zm0 745v187h91v-187h-91z"/><glyph unicode=";" horiz-adv-x="382" d="M186 0v186h93v-186q0-72-18-113.5t-75-70.5v45q25 17 37 41t13.5 41.5 1.5 56.5h-52zm0 745v187h95v-187h-95z"/><glyph unicode="<" horiz-adv-x="1144" d="M182 553v92l731 399v-100l-639-340 639-342v-106z"/><glyph unicode="=" horiz-adv-x="1144" d="M174 416v86h797v-86h-797zm0 295v86h797v-86h-797z"/><glyph unicode=">" horiz-adv-x="1144" d="M231 156v98l639 342-639 342v104l732-395v-92z"/><glyph unicode="?" horiz-adv-x="724" d="M144 1110q0 22 1.5 63t5.5 67.5 13 58.5 22 55q67 116 211 116 73 0 130-34t87-99q22-48 29.5-107t7.5-173q0-103-17-164t-71-141q-9-14-30-42.5t-36.5-51.5-27.5-44q-23-45-23-98v-160h-98v196l.5 12 1 13 2 12 4 14.5 5.5 14.5 7.5 16.5 10 17.5 12.5 20 49 71q8 11 23.5 34t23.5 34q24 36 34.5 56t22 66.5 11.5 106.5q0 70-2 105-1 36-4 63t-11.5 61.5-28 60-48.5 40.5q-32 14-68 14-46 0-80-26-33-25-50.5-73t-20-82.5-2.5-90.5q0-43 4-125h-97q0 13-1.5 57t-1.5 66zm204-1110v184h98v-184h-98z"/><glyph unicode="@" horiz-adv-x="1798" d="M117 475q0 201 75 383.5t202 314 302.5 209.5 368.5 78q278 0 441-160t163-430q0-208-90-399-69-146-171.5-233.5t-203.5-87.5q-71 0-115.5 46t-44.5 119q0 4 1.5 14.5t1.5 20.5q-130-196-306-196-120 0-190 85.5t-70 233.5q0 150 58.5 284.5t156 215 205.5 80.5q54 0 98.5-21t73-55 45.5-66 27-65l37 160h94l-66-295q-29-121-51-240-10-65-10-119 0-114 92-114 54 0 109 49 110 98 174.5 256.5t64.5 330.5q0 235-144 373.5t-388 138.5q-230 0-427-122.5t-312-331.5-115-453q0-292 191.5-473.5t500.5-181.5q84 0 158 14 170 28 329 121 69 41 109.5 71.5t105.5 92.5l48-53q-320-320-748-320-228 0-405.5 91.5t-276 256.5-98.5 377zm463-4q0-109 52-174.5t140-65.5q81 0 148 51t106.5 129 60.5 162 21 158q0 107-55.5 176.5t-141.5 69.5-163-70-122.5-187-45.5-249z"/><glyph unicode="A" horiz-adv-x="768" d="M49 0l264 1454h140l262-1454h-107l-73 440h-304l-75-440h-107zm199 535h268l-113 671q-8 45-20 135-4-40-16-124z"/><glyph unicode="B" horiz-adv-x="768" d="M121 0v1446h300l19-.5 23-2.5 23.5-4.5 25.5-7.5 24.5-11 24-15.5 21.5-20.5q49-56 49-165v-215q0-68-10-99-9-29-27.5-51.5t-33-33.5-40.5-20.5-32-10.5-27-5q100-10 153-55 31-26 47-65t18.5-69 2.5-79v-248q0-69-14.5-118.5t-57.5-88.5q-70-61-200-61h-289zm100 823h98q52 0 99 13 114 34 114 178v186q0 57-10 84-10 26-28.5 42.5t-46.5 23.5-48 8.5-51 1.5h-127v-537zm2-735h170q85 0 133 33 34 27 45 68t11 124v205q0 58-13 98-14 38-40 63t-61.5 36.5-67.5 15.5-74 4h-103v-647z"/><glyph unicode="C" horiz-adv-x="768" d="M106 328v784q0 59 1.5 88t14 73 38.5 79q77 108 233 108 88 0 156.5-37t97.5-112q21-54 21-129v-203h-99v96q0 94-4.5 138.5t-21.5 76.5q-15 31-54 53-45 25-94 25-58 0-104-29-86-51-86-198v-789.5l1-39.5 3.5-44.5 6.5-39 10.5-40 15.5-32.5q20-38 59-60 45-24 105-24 50 0 90 20 86 45 86 174v232h102v-224q0-82-18-135-58-162-277-162-61 0-110 18.5t-79 48-47 56.5-26 54q-21 64-21 174z"/><glyph unicode="D" horiz-adv-x="811" d="M123 0v1446h125q79 0 132-6t116-34 106-79q58-69 78-174t20-299v-322q0-84-2-129-7-107-33.5-183t-93.5-134q-75-59-143-74-47-12-115-12h-190zm100 90h82q106 0 178 49 69 50 94 136t25 249v332q0 271-51 367-47 88-150 116-62 15-102 15h-76v-1264z"/><glyph unicode="E" horiz-adv-x="681" d="M121 0v1446h512v-90h-414v-557h340v-88h-340v-621h412v-90h-510z"/><glyph unicode="F" d="M121 0v1446h510v-90h-412v-557h363v-88h-363v-711h-98z"/><glyph unicode="G" horiz-adv-x="811" d="M113 373v760q0 81 13.5 142t55.5 103q20 23 47 39 67 45 185 45 64 0 114-16t80-44 47-55 27-59q10-39 10-106v-201h-96v149q0 104-21 154-40 92-167 92-78 0-127-39-14-12-25-27t-18.5-26.5-13-33-8-29.5-4-35-1.5-31.5v-753.5q0-100 5-149t24-86q16-35 55-66.5t102-31.5q58 0 111 43 94 78 94 229v231h-213v88h313v-659h-75v115q-20-30-37-47-82-88-205-88-67 0-125 28t-92 82q-33 50-44 108.5t-11 174.5z"/><glyph unicode="H" horiz-adv-x="811" d="M121 0v1446h98v-643h373v643h100v-1446h-100v715h-373v-715h-98z"/><glyph unicode="I" horiz-adv-x="342" d="M119 0v1446h104v-1446h-104z"/><glyph unicode="J" horiz-adv-x="681" d="M86 248v209h98v-189q0-43 2-66.5t16-54.5 42-51q34-26 82-26 43 0 77 22 64 40 64 146v1208h98v-1182q0-37-2-55-7-128-98-189-58-40-143-40-70 0-121 28-115 61-115 240z"/><glyph unicode="K" horiz-adv-x="724" d="M119 0v1446h100v-709l361 709h112l-307-576 311-870h-108l-264 750-107-201v-549h-98z"/><glyph unicode="L" d="M119 0v1446h100v-1356h377v-90h-477z"/><glyph unicode="M" horiz-adv-x="1024" d="M111 0l12 1446h147l240-1247 240 1247h147l14-1446h-96l-2 1337-256-1337h-92l-256 1337 2-1337h-100z"/><glyph unicode="N" horiz-adv-x="811" d="M113 0v1446h147l346-1391-14 1391h98v-1446h-153l-336 1366 8-1366h-96z"/><glyph unicode="O" horiz-adv-x="811" d="M111 309v815q0 101 22 164 30 88 105 132 72 43 164 42h8q112 0 184-53 36-28 58.5-63.5t31-83.5 10.5-79.5 2-88.5v-799q0-120-43-189-29-50-92-87t-162-37q-151 0-225 88-39 49-51 105t-12 134zm98 39q0-115 16-164 14-40 59.5-76t121.5-36q67 0 112 34 36 26 55.5 67t23 74.5 3.5 86.5v704q0 96-7 150.5t-28 93.5q-24 48-65 68-38 22-97 22-60 0-110-31-84-54-84-196v-797z"/><glyph unicode="P" horiz-adv-x="768" d="M119 0v1446h240q57 0 88.5-1.5t78-15 78.5-40.5q37-30 55-77t20.5-82.5 2.5-105.5v-163q0-72-10-118t-47-91q-78-93-258-93h-148v-659h-100zm98 743h164q106 0 156 52 9 9 16 19.5t12 22 8.5 23 5.5 23.5 3.5 22 1.5 20v160q0 111-10.5 161.5t-49.5 80.5q-27 21-58 28t-95 7h-154v-619z"/><glyph unicode="Q" horiz-adv-x="811" d="M111 469v653q0 95 16 150 10 34 27.5 63.5t49 61.5 85 50.5 123.5 18.5q24 0 50-4t67.5-16.5 78.5-44 58-78.5q18-36 24-71.5t6-104.5v-801q0-85-14-146t-57-114q-16-21-56-51l189-172-60-64-219 195q-51-10-82-10-107 0-178 53-32 25-53 59-37 55-46 132t-9 241zm98-45q0-112 8-170.5t33-99.5q23-39 63-59.5t86-20.5q65 0 113 37 53 40 69.5 96.5t16.5 136.5v805q0 65-14 104-20 56-68.5 88.5t-109.5 32.5q-41 0-74-12t-53-28.5-34.5-43.5-21.5-47.5-10.5-50.5-3.5-41.5v-726.5z"/><glyph unicode="R" horiz-adv-x="768" d="M121 0v1446h280q68 0 116-9.5t89-41.5q80-63 80-201v-225q0-59-8-92-28-103-139-150-31-11-54-16l265-711h-107l-264 705h-158v-705h-100zm100 791h185q51 0 86 12 88 30 88 141v223q0 60-12.5 104.5t-53.5 67.5q-41 21-104 21h-189v-569z"/><glyph unicode="S" horiz-adv-x="768" d="M86 268v205h100v-117q0-1-1-45t1-45q11-200 213-200 64 0 105 26 80 49 80 211 0 77-13.5 122t-38.5 85q-34 52-87 109t-76 77q-115 112-166 183-82 110-82 268 0 67 8 108 36 211 264 211 104 0 170-41 29-19 49-47t30-53.5 15-64 6-62.5 1-65v-105h-99v129q0 67-6 96-21 127-164 127-63 0-102-24-72-46-72-193 0-97 26.5-154t98.5-139q32-39 98-108 111-111 148-158 52-65 72-130t20-155q0-159-51-235-73-107-246-107-103 0-166 35-24 15-47 35-49 43-72 105-16 47-16 116z"/><glyph unicode="T" d="M14 1356v90h611v-90h-256v-1356h-103v1356h-252z"/><glyph unicode="U" horiz-adv-x="811" d="M117 342v1104h98v-1120q0-132 33-183 48-73 160-73 76 0 118 34 17 13 28.5 26.5t19 36.5 11 37.5 5.5 52.5 2 55.5v1133.5h100v-1159q0-90-20-146-17-45-47.5-78.5t-60-49.5-66.5-25.5-57-11-40-1.5q-110 0-182 54-25 16-45 47-22 29-34.5 59t-17 73.5-5 60-.5 73.5z"/><glyph unicode="V" horiz-adv-x="724" d="M55 1446h105l194-1233 211 1233h103l-262-1446h-105z"/><glyph unicode="W" horiz-adv-x="1150" d="M43 1446h102l195-1229 186 1229h107l188-1229 189 1229h100l-236-1446h-108l-186 1243-187-1243h-104z"/><glyph unicode="X" horiz-adv-x="724" d="M49 0l262 797-202 649h104l156-549 168 549h104l-219-651 254-795h-105l-209 686-210-686h-103z"/><glyph unicode="Y" horiz-adv-x="724" d="M29 1446h106l232-680 229 680h111l-295-807v-639h-99v639z"/><glyph unicode="Z" horiz-adv-x="724" d="M55 0v66l480 1292h-394v88h510v-68l-483-1288h481v-90h-594z"/><glyph unicode="[" horiz-adv-x="468" d="M109-289v1735h290v-74h-202v-1583h202v-78h-290z"/><glyph unicode="\" d="M70 1446h90l415-1446h-96z"/><glyph unicode="]" horiz-adv-x="468" d="M66 1372v74h294v-1735h-288v78h200v1583h-206z"/><glyph unicode="^" horiz-adv-x="1144" d="M154 731l368 715h96l371-715h-104l-316 623-309-623h-106z"/><glyph unicode="_" horiz-adv-x="1024" d="M-20-317h1064v-89h-1064v89z"/><glyph unicode="`" horiz-adv-x="468" d="M45 1389h199l180-224h-66z"/><glyph unicode="a" d="M57 242q0 89 37 161 17 31 40 57t54 47.5 54.5 35 64 34.5 58.5 31q54 31 90 60v116q0 39-1 57.5t-12.5 47.5-35.5 45q-25 18-82 18-89 0-117-65-20-41-20-133 0-19 1-41h-88q0 96 4 135t21 76q50 112 211 112 66 0 121-28 55-31 71.5-78t16.5-121v-692q1-11 5.5-18t8.5-10.5 15-5 14.5-1.5h17.5v-82q-51 0-77 6t-44 23q-19 16-28 51-66-52-120-68-38-12-79-12-101 0-151 69t-50 173zm88-2q0-20 3.5-40t15.5-50 42-49 75-19q55 0 93.5 24t82.5 72v393q-31-25-66-43-20-12-56.5-31t-45.5-24q-74-45-109-98.5t-35-134.5z"/><glyph unicode="b" horiz-adv-x="681" d="M106 0v1446h87v-504q1 1 13.5 16t20.5 23q59 61 156 61 55 0 96-22 33-17 55-45t32-65 13-68 3-72v-532q0-87-39-146-22-37-66-67.5t-112-30.5q-62 0-107 29-28 21-39 32-6 7-20 31v-86h-93zm89 276q0-72 34-129 49-75 129-75 67 0 105 57 33 47 33 139v524.5l-2.5 27.5-7 36.5-15 36.5-24.5 34.5-37 23.5-52 10q-55 0-95.5-30t-57.5-83q-10-38-10-74v-498z"/><glyph unicode="c" d="M82 295v475q0 68 16 117 16 48 46.5 79.5t67.5 44 60 16 47 3.5q236 0 236-276v-90h-86v79q0 51-8 91-27 120-139 120-63 0-96-31t-44-67q-12-35-12-92v-442q0-105 14-150 33-96 148-96 60 0 91.5 28t41.5 62q10 31 10 78v149h88v-133q0-80-12-117-23-77-87.5-113t-150.5-36q-77 0-135 39-43 28-65.5 75.5t-26.5 86-4 100.5z"/><glyph unicode="d" horiz-adv-x="681" d="M98 252v518q0 159 90 223 48 37 117 37 18 0 34.5-2t30.5-7 25.5-9.5 23-12.5 18.5-13 16.5-14.5 13-13.5 11.5-13.5 9-10.5v512h86v-1446h-81v109q-9-20-33-48-55-69-156-69-107 0-162 80-43 61-43 180zm86 16q0-59 10-98.5t44-69.5q37-30 88-30 63 0 106.5 43.5t54.5 105.5v547q0 1-2.5 15t-5 25.5-9 30-14.5 33.5-22 31-31 27q-36 20-77 20-48 0-83.5-29t-49.5-75q-9-28-9-76v-500z"/><glyph unicode="e" d="M88 250v541q0 53 12 96 8 26 21.5 49t38.5 47 66.5 38.5 95.5 14.5q132 0 196-90 20-31 29.5-77t10.5-72.5 1-83.5v-207h-385v-254q0-43 8-74 29-100 146-100 63 0 102 37 21 21 29 45 3 7 5 14.5t3.5 17.5 2.5 17 1.5 19.5 1 20 .5 24v85.5h86v-116q0-52-9-88.5t-36-71.5q-63-84-192-84-48 0-89 12-32 9-71 40t-58 85q-16 41-16 115zm86 330h297v188q0 118-57 162-39 28-90 28-55 0-91-28-37-29-48-69.5t-11-100.5v-180z"/><glyph unicode="f" horiz-adv-x="382" d="M35 948v82h123v244q0 105 84 149 41 23 98 23 19 0 51-4v-80q-16 2-30 2-94 0-115-76-4-18-4-53v-205h127v-82h-131v-948h-86v948h-117z"/><glyph unicode="g" horiz-adv-x="681" d="M94-104h88q0-2 1-15.5t4.5-30 9.5-30.5q32-60 127-60 12 0 28 2.5t41 10 47.5 26.5 34.5 47q12 27 12 76v170q-1-1-10.5-11t-14-14-16.5-14-20.5-15.5-23-13.5-28-12-31.5-7-36-3q-61 0-110 31-27 16-45 40t-27.5 46-14 55.5-5.5 54.5-1 58v520q0 57 15 106 12 34 33.5 59.5t43 38 48 19.5 41.5 8.5 30 1.5q107 0 172-94v84h88v-1079q0-80-14-121-27-76-91-115t-148-39q-64 0-122.5 26t-82.5 79q-18 37-23 115zm96 387q0-41 2-65t14.5-56 37.5-51q35-25 84-25 32 0 70 18t65 64q14 25 26 72v577q-11 62-54 103-42 41-102 41h-3q-42 0-76-21-22-15-36-35.5t-19.5-48-7-47-1.5-51.5v-475z"/><glyph unicode="h" horiz-adv-x="681" d="M111 0v1446h88l2-496q1 1 6 6.5t7 8 8 8.5 10 9.5 10.5 9.5 13 10 14.5 9 16.5 9 18.5 8q41 14 80 14 32 0 74-12 89-32 116-125 11-36 11-88v-817h-88v764q0 36-2 58t-9.5 51.5-27.5 48.5-51 28q-18 6-46 6-56 0-93-29t-52-57q-18-30-18-51v-819h-88z"/><glyph unicode="i" horiz-adv-x="299" d="M104 0v1030h86v-1030h-86zm0 1151v160h89v-160h-89z"/><glyph unicode="j" horiz-adv-x="342" d="M14-246q29 7 45 14.5t35 26.5q23 23 34.5 55.5t13 55 1.5 65.5v1059h86v-1126l-.5-20.5-3-24.5-5.5-25-9-27.5-13.5-26.5-18.5-27-25-25q-18-18-66-41-34-14-74-21v88zm129 1395v160h86v-160h-86z"/><glyph unicode="k" d="M106 0v1446h87v-899l296 483h101l-240-393 264-637h-96l-225 543-98-160v-383h-89z"/><glyph unicode="l" horiz-adv-x="299" d="M106 0v1446h87v-1446h-87z"/><glyph unicode="m" horiz-adv-x="1067" d="M109 0v1030h88v-86q11 13 32 35 24 22 66.5 42.5t93.5 20.5q42-1 74-13.5t53-36 29.5-37 19.5-35.5q13 18 19 26.5t27.5 30.5 41 34 52 22.5 67.5 10.5q17 0 35-3.5t44-12.5 50-31.5 39-54.5q17-35 21-76.5t4-136.5v-729h-88v737q0 100-9.5 142t-48.5 65q-28 17-71 17-86-3-136-68-18-26-32-59v-834h-88v813q0 38-9 64-12 40-46 63t-77 23q-70 0-124-54-22-22-41-59v-850h-86z"/><glyph unicode="n" horiz-adv-x="681" d="M113 0v1030h86v-98q15 25 39 49 61 61 151 61 66-2 116-35t68-96q11-40 11-84v-827h-86v825l-3 24q-3 24-8 40-29 78-112 78h-4q-91 0-146-78-12-16-26-51v-838h-86z"/><glyph unicode="o" d="M80 248v540q0 52 8 86.5t35 69.5q65 92 205 92 110 0 172-59 30-30 47-76 14-41 14-119v-491q0-85-14-133-15-52-46.5-88t-69.5-50-64-19-50-5q-71 0-132.5 32.5t-86.5 94.5q-18 44-18 125zm88 2q0-41 6-68 13-51 51-76.5t92-25.5q107 0 142 88 14 35 14 90v516q0 53-11.5 90t-47.5 62q-32 24-86 24-63 0-99-28-29-21-43-52.5t-16-54.5-2-67v-498z"/><glyph unicode="p" horiz-adv-x="681" d="M111-334v1364h88v-90q2 3 12.5 16.5t17.5 20.5q70 63 160 63 67 0 115-39 24-19 40-45.5t23.5-48.5 11.5-60 4.5-56 .5-60v-500q0-48-17-100-22-64-73-100.5t-119-36.5q-77 0-135 47-18 14-41 43v-418h-88zm88 527q9-29 20-46 23-33 60-52t79-19 76 20q28 18 43 52.5t17 60 2 67.5v525q0 22-7 57-12 47-46 75t-81 28q-57-1-93.5-29.5t-51.5-57.5q-13-21-18-47v-634z"/><glyph unicode="q" horiz-adv-x="681" d="M100 256v506q0 40 2 63 8 104 70 164 53 53 141 53 93 0 144-57 7-7 12.5-14.5t9.5-15 6-9.5v84h84v-1364h-86v428q-61-100-186-100-99 0-154 76-25 34-34 71.5t-9 114.5zm86 78q0-79 3-116.5t16-67.5q36-78 117-78 52 0 91.5 32t57.5 80q7 23 14 72v492q0 1-1 13.5t-2 23-4 28-9 33-14 32.5-21.5 32-30.5 26q-39 25-77 25-57 0-99-46-19-23-28.5-53t-11-50.5-1.5-59.5v-418z"/><glyph unicode="r" horiz-adv-x="425" d="M109 0v1030h84v-180q23 52 61 96 61 65 154 111v-117q-57-17-80-31-79-46-133-182v-727h-86z"/><glyph unicode="s" horiz-adv-x="598" d="M57 274v88h86v-59q0-40 .5-57.5t7.5-52 21-56.5q14-24 41-37 39-20 90-20 47 0 74 12 78 33 78 160 0 53-17.5 92.5t-36.5 58.5-68 60q-9 8-14 12-77 61-147 131-76 86-76 207 0 221 217 221 35 0 65-6.5t50.5-16 37.5-26.5 27-30.5 17.5-36 10.5-35.5 5-37 2-32v-97h-88v74q0 58-13.5 97t-57.5 56q-23 8-58 8-65 0-96-32t-31-99q0-49 8-78.5t35-60.5q37-46 154-143 62-50 90-78 72-77 72-209 0-171-117-229-62-27-123-27-87 0-149 37-24 16-45 37-14 19-21 34-31 64-31 170z"/><glyph unicode="t" horiz-adv-x="382" d="M18 948v82h109v266h88v-266h156v-82h-156v-811q0-59 78-59 24 0 78 4v-82q-47-5-86-5-29 0-51 3-54 6-82 35-25 29-25 84v831h-109z"/><glyph unicode="u" horiz-adv-x="681" d="M102 236v794h86v-762q0-148 78-186 20-12 58-12 80 0 125 63 19 27 34 70v827h88v-1030h-88v96q-28-35-32-39-66-63-154-63-45 0-86.5 20t-67.5 56q-41 54-41 166z"/><glyph unicode="v" horiz-adv-x="555" d="M29 1030h90l155-895 152 895h94l-196-1030h-101z"/><glyph unicode="w" horiz-adv-x="894" d="M29 1030h88l141-883 156 883h71l140-883 155 883h90l-198-1030h-88l-135 842-148-842h-90z"/><glyph unicode="x" d="M25 0l223 537-205 493h94l160-405 164 405h94l-207-483 219-547h-96l-174 463-176-463h-96z"/><glyph unicode="y" horiz-adv-x="598" d="M18-336l2 86q21-2 40-2 109 0 151 84 11 22 18 57l27 119-225 1022h88l180-856 182 856h92l-264-1147q-13-53-27.5-87.5t-43.5-65.5-72-46.5-71-17.5-77-2z"/><glyph unicode="z" horiz-adv-x="598" d="M74 0v78l354 866h-326v86h430v-72l-358-872h356v-86h-456z"/><glyph unicode="{" horiz-adv-x="724" d="M158 547v67q47 10 71 27 62 45 62 246v180q0 62 6.5 112.5t25 100 48.5 83.5 79.5 56.5 116.5 26.5v-64q-89-22-129.5-64t-52.5-132q-11-79-6-179t-6-214-47-158q-27-34-72-51v-6q49-20 78-64 27-37 37.5-113.5t8.5-150.5-1.5-159 8.5-128q17-85 57.5-125t124.5-59v-66q-85 7-142.5 42t-83 86-39 117-11.5 134 1.5 137.5-2 127.5-20 104-55.5 67q-33 17-57 19z"/><glyph unicode="|" horiz-adv-x="468" d="M190-512v2044h89v-2044h-89z"/><glyph unicode="}" horiz-adv-x="724" d="M158-221q49 10 84 31t55.5 47.5 32 65.5 15 75.5 3.5 85.5v178l1 51 3.5 58 7 50 11.5 50 16 37q31 51 84 70v6q-41 14-70 51-30 33-42.5 111t-11 156 1 166-8.5 128q-17 86-56 125t-126 61v64q67-4 116.5-25.5t78-55.5 47-79 23-95.5 7.5-105 0-106.5v-57q0-238 66-283 27-18 71-25v-67q-46-8-69-25-68-46-68-248 0-23 1-70t1-74.5-1.5-72.5-6-73-13.5-66.5-22-63-34-52-48.5-44-65-29-83.5-16.5v66z"/><glyph unicode="~" horiz-adv-x="1163" d="M135 567q51 62 86 90 65 56 160 56 72 0 156-37l118-51q84-37 125-37 44 0 83.5 24.5t94.5 87.5l68-55q-34-42-57-62.5t-56-41.5q-64-41-137-41-74 0-190 53l-54 25q-98 45-159 45-43 0-78.5-21.5t-79.5-75.5l-12-12z"/><glyph unicode="¡" horiz-adv-x="382" d="M96 1266v180h92v-180h-92zm2-1266v788l19 279h53l29-299v-768h-101z"/><glyph unicode="¢" d="M82 295v475q0 68 16 117.5t45.5 77.5 62.5 42 77 21v127h59v-125q65-6 109-30.5t65.5-64 30-82 8.5-99.5v-90h-86v77q0 37-1.5 60.5t-15 60.5-38.5 60q-37 32-92 32-44 0-75-18t-45.5-40.5-22.5-54-8.5-46-.5-29.5v-461q0-39 1.5-64t10.5-59.5 25.5-55 48-35.5 76.5-15q143 0 143 168v149h88v-133q0-89-21-138-46-111-188-126v-141h-59v139q-82 10-125 45-52 40-70 96.5t-18 159.5z"/><glyph unicode="£" horiz-adv-x="817" d="M61 0v100q81 15 140 39 184 78 184 295 0 64-23 125-13 34-57 94h-231v76h182q-44 76-57 145t-13 222q0 133 24 205.5t83 113.5q64 45 160 45 165 0 219-133 18-47 24-92 6-55 6-119v-121h-94v29q0 116-2.5 161t-11.5 83q-24 106-150 106-108 0-143-84-20-49-20-188 0-115 6-174t24-103q12-30 56-96h247v-76h-198q37-56 52-104t15-109q0-228-207-340 61-3 91-6 32-2 78-6t74-6 42-2q12 0 105 6 36 4 104 18v-90q-102-22-199-22-9 0-14.5.5t-10 1-20.5 2-41 2.5l-180 10q-55 4-94 4-74 0-150-12z"/><glyph unicode="¤" horiz-adv-x="1267" d="M115 217l141 145q-113 143-113 334 0 183 111 332l-139 152 73 67 136-145q140 119 313 119 167 0 307-117l139 143 68-71-137-148q110-150 110-336 0-173-112-330l139-153-72-72-135 152q-78-65-149.5-92t-163.5-27q-88 0-161 28t-146 89l-140-144zm129 479q0-189 113.5-314.5t283.5-125.5q163 0 272 125.5t109 312.5q0 191-110 316t-277 125q-166 0-278.5-126.5t-112.5-312.5z"/><glyph unicode="¥" horiz-adv-x="724" d="M29 1446h106l234-682 241 682h97l-224-610h176v-88h-206l-33-89v-34h239v-88h-247v-537h-99v537h-247v88h241v34l-31 89h-210v88h178z"/><glyph unicode="¦" horiz-adv-x="468" d="M190 389h89v-901h-89v901zm0 242v899h89v-899h-89z"/><glyph unicode="§" horiz-adv-x="768" d="M92 125v108h92v-110q0-92 10-125 17-50 68-82 48-29 117-29 112 0 156.5 54t44.5 165q0 53-4 82.5t-22.5 55-40.5 41-73 45.5q-22 13-71.5 40t-80 44.5-72 48.5-65.5 59-41.5 68.5-17.5 85.5q0 143 131 233-61 50-84.5 104t-23.5 136q0 158 69 236.5t222 78.5q78 0 144-27.5t97-88.5q23-47 23-127v-166h-90v149q0 92-42.5 132t-136.5 40q-109 0-152.5-57.5t-43.5-169.5q0-70 26.5-112t87.5-83q31-21 80-47t87-45.5 80.5-49 70.5-59.5 46.5-74.5 18.5-96.5q0-69-24.5-126t-73.5-118q41-41 54.5-90.5t13.5-118.5q0-158-65.5-241t-223.5-83q-164 0-227.5 78.5t-63.5 241.5zm88 567q0-61 35-104 14-17 45.5-40.5t75.5-50 79-46.5 82-46 58-32q57 71 57 168 0 30-5 56t-12 45-22 37.5-26 29.5-34 26.5-36.5 23-43 24-44.5 24.5q-109 64-113 67-48-25-72-74.5t-24-107.5z"/><glyph unicode="¨" horiz-adv-x="468" d="M84 1198v158h98v-158h-98zm203 0v158h98v-158h-98z"/><glyph unicode="©" horiz-adv-x="1705" d="M125 727q0 120 36 231t103 200 156 155.5 201 102.5 233 36q200 0 367.5-96t264.5-262.5 97-364.5v-10q0-200-98-367t-266-262.5-367-95.5q-150 0-284.5 57.5t-231.5 155-154 233.5-57 287zm65-6q0-180 89-332.5t241.5-241 333.5-88.5q135 0 258 52t212 140.5 141.5 211 52.5 256.5q0 185-87.5 338t-239.5 241-335 88q-137 0-260.5-52t-212-141-141-212-52.5-260zm416-193v375q0 104 13 149.5t53 80.5q64 55 172 55 110 0 168-49 40-32 52.5-74t12.5-139v-72h-100v70q0 59-4.5 84.5t-18.5 42.5q-28 39-112 39-75 0-105-35-18-18-23-43t-5-90v-414q0-64 5-88.5t23-44.5q29-33 105-33 84 0 112 39 14 15 18.5 41t4.5 84v80h100v-80q0-99-12.5-141t-52.5-74q-60-47-168-47-111 0-172 55-40 34-53 79.5t-13 149.5z"/><glyph unicode="ª" horiz-adv-x="382" d="M33 1004q0 23 4.5 44t9 35 17 30 18 23 24 20 22 15.5 26.5 14.5l22 12q13 7 25 13.5t17.5 10 16 10 25.5 17.5v54q0 19-.5 28t-3.5 24.5-10 23-20 14-33 6.5-33.5-6.5-21-16.5-11.5-29.5-5-36.5-1-46h-64v41q0 153 138 155 60 0 84-20 10-7 18-16t13-16 8.5-18 5.5-16.5 3-18.5 1-16.5v-390.5q0-28 32-28v-58q-4 0-12-1t-12-1q-50 0-76 37-56-37-104-37-60 0-91.5 44t-31.5 100zm69 4q0-40 19.5-61t48.5-21q37-2 90 45v200q-92-41-125-75t-33-88z"/><glyph unicode="«" horiz-adv-x="768" d="M55 600l256 205h125l-258-203 250-207h-123zm289 0l256 205h121l-250-205 240-205h-115z"/><glyph unicode="¬" horiz-adv-x="1144" d="M135 561v84h838v-463h-92v379h-746z"/><glyph unicode="­" horiz-adv-x="507" d="M72 555v86h362v-86h-362z"/><glyph unicode="®" horiz-adv-x="1705" d="M125 727q0 120 36 231t103 200 156 155.5 201 102.5 233 36q200 0 367.5-96t264.5-262.5 97-364.5v-10q0-200-98-367t-266-262.5-367-95.5q-150 0-284.5 57.5t-231.5 155-154 233.5-57 287zm65-6q0-180 89-332.5t241.5-241 333.5-88.5q135 0 258 52t212 140.5 141.5 211 52.5 256.5q0 185-87.5 338t-239.5 241-335 88q-137 0-260.5-52t-212-141-141-212-52.5-260zm459-463v920h144q69 0 96-2 85-3 133-39 80-61 80-207 0-103-49-174-22-31-48-47.5t-71-28.5l201-422h-115l-193 410h-73v-410h-105zm105 500h47q107 0 145 28 49 40 49 140 0 94-43 131-19 15-47.5 20.5t-87.5 5.5h-63v-325z"/><glyph unicode="¯" horiz-adv-x="468" d="M41 1198v86h387v-86h-387z"/><glyph unicode="°" horiz-adv-x="724" d="M72 1233q0 120 85 205.5t205 85.5q121 0 206-85.5t85-205.5q0-121-84.5-206t-206.5-85q-121 0-205.5 84.5t-84.5 206.5zm92 0q0-82 57.5-141.5t140.5-59.5 142 59 59 142-59 141-142 58q-82 0-140-58.5t-58-140.5z"/><glyph unicode="±" horiz-adv-x="1144" d="M174 0v86h797v-86h-797zm0 561v86h356v377l86-2v-375h355v-86h-355v-375h-86v375h-356z"/><glyph unicode="²" horiz-adv-x="468" d="M51 543v71q4 27 17.5 53t48.5 81q27 40 73 105t61.5 89.5 37.5 71 28.5 90 6.5 104.5v14q0 23-.5 37t-5 39.5-13 40.5-26.5 27-43 12q-91 0-91-123v-110h-73v110q0 30 1.5 47.5t8 45 23.5 48.5 45 38q32 18 88 18 40 0 70-13t46-33.5 27.5-44.5 13.5-47 4-41.5 0-25.5v-4q0-124-8-164-5-27-16-56.5t-21-51.5-32-57-32.5-51-39.5-57.5-37-53.5l-15-21-13.5-19-10.5-15-9-14-7-11.5-7-11.5-5.5-10-5.5-11-4.5-11.5-4.5-13.5h268v-71h-348z"/><glyph unicode="³" horiz-adv-x="468" d="M46.5 737.5q-2.5 21.5.5 31.5v5q0 12 1 29.5t1 27.5h74q0-43 .5-65t3.5-53.5 10-47.5 19-33 31-23.5 46-6.5q111 0 111 150v84q0 39-10.5 67t-25 43.5-41.5 25-49 12.5-58 5v76q168 0 168 135v68q0 1 .5 7t.5 12-1 15-3 17-5.5 17-10 16-15 13-21.5 9.5-29 3.5q-49 0-66.5-26.5t-19.5-75.5l-2-102h-74v116l3 30 8 37 17 34 28.5 32 43.5 20 62 9q53 0 88-20 44-27 59-62.5t15-105.5q0-110-19-156t-90-78q68-28 95.5-70t27.5-135q0-83-2.5-119.5t-19-77-52.5-67.5q-42-31-113-31-46 0-81.5 15t-54 38-31.5 51.5-15 55-4.5 48z"/><glyph unicode="´" horiz-adv-x="468" d="M51 1161l172 223h195l-293-223h-74z"/><glyph unicode="µ" horiz-adv-x="681" d="M102-334v1364h86v-786q0-83 35.5-128.5t100.5-45.5q57 0 92.5 30t66.5 103v827h86v-880q0-45 8.5-57.5t38.5-12.5h19v-82h-10q-77 0-104.5 18.5t-33.5 73.5q-67-94-174-94-78 0-125 55v-385h-86z"/><glyph unicode="¶" horiz-adv-x="1284" d="M190 1057q0 127 61.5 223t170.5 137q77 29 196 29h396v-86h-68v-1702h-90v1702h-276v-1702h-93v1034q-141 19-219 115t-78 250z"/><glyph unicode="·" horiz-adv-x="299" d="M102 500v184h91v-184h-91z"/><glyph unicode="¸" horiz-adv-x="468" d="M70-266l39 47q75-41 110-41 39 1 56.5 23t17.5 44-12 39q-7 9-17 17t-20 12.5-21.5 8.5-19 5.5-15.5 2.5l-8 2 10 159h68l-6-104q88-24 125-80 22-31 22-70-1-19-8-38.5t-22.5-40.5-45-34.5-69.5-13.5q-34 0-68.5 10t-56 20.5-59.5 31.5z"/><glyph unicode="¹" horiz-adv-x="468" d="M88 1249v72q70 18 97.5 47t43.5 80h70v-905h-80v762q-60-45-131-56z"/><glyph unicode="º" horiz-adv-x="382" d="M45 1017v275q0 170 145 170 146 0 146-155v-283q0-18-.5-28.5t-4.5-33.5-13.5-38.5-25.5-32.5-43.5-25-64.5-8q-40 1-68.5 14t-42 29-20.5 42.5-7.5 39.5-.5 34zm66 7q0-98 77-100 24-1 40.5 7.5t23.5 22 11 28 3 26 0 15.5v269q0 26-1.5 40.5t-8.5 32.5-24 26.5-44 7.5q-40-2-58.5-25.5t-18.5-81.5v-268z"/><glyph unicode="»" horiz-adv-x="768" d="M41 391l254 209-238 201h113l250-201-254-209h-125zm285 0l264 207-250 203h125l248-201-258-209h-129z"/><glyph unicode="¼" horiz-adv-x="1193" d="M88 1249v72q70 18 97.5 47t43.5 80h70v-905h-80v762q-60-45-131-56zm98-1370l752 1731 51-25-751-1728zm574 391v88l231 545h96v-561h107v-72h-107v-270h-75v270h-252zm67 72h185v453z"/><glyph unicode="½" horiz-adv-x="1193" d="M88 1249v72q70 18 97.5 47t43.5 80h70v-905h-80v762q-60-45-131-56zm80-1370l752 1731 51-25-752-1728zm608 121v72q8 33 15.5 49.5t39.5 66.5q30 46 75 109t64 92.5 41.5 75 30 92 7.5 109.5v6q0 84-15 117-21 47-73 47-27 0-46-12t-27.5-27-13-36-4.5-29.5v-129.5h-73v111q0 26 .5 39.5t5 37.5 12.5 39.5 25 33 41 30.5q45 23 82 16 40 0 70-13t46-33 27.5-44 13.5-47 4-41.5 0-26.5v-4q0-87-4.5-135t-26.5-104-50.5-101-94.5-137q-5-7-16-22.5t-15-21.5-12.5-18-12-17.5-9.5-15-9-15.5-7-13.5-6.5-14-4.5-13.5h270v-72h-350z"/><glyph unicode="¾" horiz-adv-x="1193" d="M46.5 737.5q-2.5 21.5.5 31.5v5q0 12 1 29.5t1 27.5h74q0-43 .5-65t3.5-53.5 10-47.5 19-33 31-23.5 46-6.5q111 0 111 150v84q0 39-10.5 67t-25 43.5-41.5 25-49 12.5-58 5v76q168 0 168 135v68q0 1 .5 7t.5 12-1 15-3 17-5.5 17-10 16-15 13-21.5 9.5-29 3.5q-49 0-66.5-26.5t-19.5-75.5l-2-102h-74v116l3 30 8 37 17 34 28.5 32 43.5 20 62 9q53 0 88-20 44-27 59-62.5t15-105.5q0-110-19-156t-90-78q68-28 95.5-70t27.5-135q0-83-2.5-119.5t-19-77-52.5-67.5q-42-31-113-31-46 0-81.5 15t-54 38-31.5 51.5-15 55-4.5 48zm182.5-858.5l750 1731 53-25-753-1728zm531 391v88l231 545h96v-561h107v-72h-107v-270h-75v270h-252zm67 72h185v453z"/><glyph unicode="¿" horiz-adv-x="724" d="M74 391q0 105 17.5 166.5t74.5 142.5q67 95 86 125 23 40 29 107v160h96v-174q0-46-9-75.5t-34-66.5l-49-71q-35-51-47-70-23-33-34.5-54.5t-22.5-67.5-11-105q0-82 6-158 13-139 92-174 29-13 64-13 44 0 80 27 33 25 50.5 73t20 82.5 2.5 90.5q0 43-4 125h97q0-1 1.5-41.5t2-49 .5-46-1.5-52.5-4-46.5-7.5-49.5-12.5-41-17.5-41q-68-117-211-117-73 0-130 34.5t-87 99.5q-22 48-29.5 107t-7.5 173zm207 871v184h96v-184h-96z"/><glyph unicode="À" horiz-adv-x="768" d="M49 0l264 1454h140l262-1454h-107l-73 440h-304l-75-440h-107zm74 1802h199l180-223h-68zm125-1267h268l-113 671q-8 45-20 135-4-40-16-124z"/><glyph unicode="Á" horiz-adv-x="768" d="M49 0l264 1454h140l262-1454h-107l-73 440h-304l-75-440h-107zm199 535h268l-113 671q-8 45-20 135-4-40-16-124zm12 1040l172 223h193l-291-223h-74z"/><glyph unicode="Â" horiz-adv-x="768" d="M49 0l264 1454h140l262-1454h-107l-73 440h-304l-75-440h-107zm125 1575l158 223h104l148-221h-80l-121 139-125-141h-84zm74-1040h268l-113 671q-8 45-20 135-4-40-16-124z"/><glyph unicode="Ã" horiz-adv-x="768" d="M49 0l264 1454h140l262-1454h-107l-73 440h-304l-75-440h-107zm113 1622q22 34 39 54.5t47.5 39.5 64.5 19q35 0 86-21 58-28 84-28 23 0 39 8 16 9 58 57l32-27q-22-36-32-47-29-39-55.5-59.5t-63.5-20.5q-10 0-25 3.5t-27.5 8-36.5 13.5-40 14q-26 13-49 13-28 0-47.5-13.5t-42.5-40.5zm86-1087h268l-113 671q-8 45-20 135-4-40-16-124z"/><glyph unicode="Ä" horiz-adv-x="768" d="M49 0l264 1454h140l262-1454h-107l-73 440h-304l-75-440h-107zm129 1616v156h107v-156h-107zm70-1081h268l-113 671q-8 45-20 135-4-40-16-124zm233 1081v156h107v-156h-107z"/><glyph unicode="Å" horiz-adv-x="768" d="M49 0l264 1454h140l262-1454h-107l-73 440h-304l-75-440h-107zm199 535h268l-113 671q-8 45-20 135-4-40-16-124zm0 1132q0 57 39.5 96t95.5 39q57 0 96-39.5t39-95.5q0-57-39.5-96t-95.5-39q-57 0-96 39t-39 96zm45 0q0-39 26-65 28-25 64-25 38 0 64 26.5t26 63.5q0 38-26.5 64t-63.5 26q-38 0-64-26.5t-26-63.5z"/><glyph unicode="Æ" horiz-adv-x="1024" d="M43 0l371 1446h534v-88h-325v-559h299v-90h-299v-619h360v-90h-461v627h-221l-154-627h-104zm279 711h200v647h-37z"/><glyph unicode="Ç" horiz-adv-x="768" d="M106 328v784q0 105 10 148 21 92 99 149 69 51 178 51 16 0 29-.5t51.5-9 67.5-23 61-48 49-79.5q6-18 10.5-47.5t5.5-50.5l1-20v-203h-99v94q0 8 .5 33.5t.5 38.5-1.5 38-4.5 40-9 37-14.5 35-22 28.5-30.5 24-40.5 14.5-52.5 6q-35 0-66-9.5t-60-31.5-46.5-65.5-17.5-104.5v-727q0-11-.5-38.5t-.5-44.5 1.5-46.5 4.5-48.5 9.5-45 16.5-43.5 25-36.5 35-30 47-18 60-7q49 0 85 16.5t53.5 38 27.5 52.5 11.5 49 1.5 38v232h102v-224q0-27-1-46t-6.5-50.5-15.5-54.5-30.5-50.5-48.5-45.5-71.5-32-98.5-18l-2-28q14-4 30-10t45.5-22 49.5-44.5 22-65.5q2-46-32.5-90.5t-110.5-44.5q-24 0-48 5t-46.5 13.5-37.5 15.5-33 16.5-22 11.5l39 47q4-2 20.5-11t23-12 19.5-8.5 23.5-7.5 20.5-2q40-1 59 20.5t19 46.5q0 22-11 38.5t-32 26-35 14-35 8.5l6 88q-95 12-148 64.5t-71 111.5q-6 20-9.5 46t-5 47-1.5 23q0 24-3 54z"/><glyph unicode="È" horiz-adv-x="681" d="M80 1802h199l180-223h-68zm41-1802v1446h512v-90h-414v-557h340v-88h-340v-621h412v-90h-510z"/><glyph unicode="É" horiz-adv-x="681" d="M121 0v1446h512v-90h-414v-557h340v-88h-340v-621h412v-90h-510zm127 1575l174 223h192l-290-223h-76z"/><glyph unicode="Ê" horiz-adv-x="681" d="M121 0v1446h512v-90h-414v-557h340v-88h-340v-621h412v-90h-510zm31 1575l159 223h103l149-221h-82l-119 139-124-141h-86z"/><glyph unicode="Ë" horiz-adv-x="681" d="M121 0v1446h512v-90h-414v-557h340v-88h-340v-621h412v-90h-510zm39 1616v156h106v-156h-106zm303 0v156h106v-156h-106z"/><glyph unicode="Ì" horiz-adv-x="342" d="M-90 1802h199l180-223h-68zm209-1802v1446h104v-1446h-104z"/><glyph unicode="Í" horiz-adv-x="342" d="M45 1575l174 223h193l-291-223h-76zm74-1575v1446h104v-1446h-104z"/><glyph unicode="Î" horiz-adv-x="342" d="M-39 1575l158 223h104l148-221h-80l-121 139-125-141h-84zm158-1575v1446h104v-1446h-104z"/><glyph unicode="Ï" horiz-adv-x="342" d="M-33 1616v156h107v-156h-107zm152-1616v1446h104v-1446h-104zm153 1616v156h105v-156h-105z"/><glyph unicode="Ð" horiz-adv-x="811" d="M-2 758v86h123v602h168q99 0 175.5-24t139.5-101q56-67 75-176t19-297v-332q0-62-1.5-95.5t-8.5-95-26.5-110.5-51.5-88q-68-84-170-111-57-16-149-16h-168v758h-125zm223-666h86q82 0 135 25 33 15 59 39.5t42 49 28 60 17.5 60.5 8.5 64 3 57.5v410.5q0 180-19.5 276.5t-84.5 153.5q-46 40-95 53t-112 13h-68v-510h225v-86h-225v-666z"/><glyph unicode="Ñ" horiz-adv-x="811" d="M113 0v1446h147l346-1391-14 1391h98v-1446h-153l-336 1366 8-1366h-96zm69 1622q18 26 30 41t32 34.5 42 28.5 48 9q35 0 86-21 63-28 86-28 21 0 37 8 7 4 14 9.5t11.5 10.5 15 17 18.5 20l31-27q-18-29-31-47-29-39-56-59.5t-65-20.5q-12 0-28.5 4.5t-49.5 16.5-51 18q-26 13-49 13-28 0-46-13t-42-41z"/><glyph unicode="Ò" horiz-adv-x="811" d="M111 309v815l1 32q1 31 6 67t15 65q30 87 105 131.5t172 42.5q112 0 184-53 36-28 58.5-63.5t31-83.5 10.5-79.5 2-88.5v-799q0-120-43-189-29-50-92-87t-162-37q-151 0-225 88-39 49-51 105t-12 134zm32 1493h199l180-223h-65zm66-1454q0-115 16-164 14-40 59.5-76t121.5-36q67 0 112 34 36 26 55.5 67t23 74.5 3.5 86.5v704q0 96-7 150.5t-28 93.5q-24 48-65 68-38 22-97 22-60 0-110-31-84-54-84-196v-797z"/><glyph unicode="Ó" horiz-adv-x="811" d="M111 309v815l1 32q1 31 6 67t15 65q30 87 105 131.5t172 42.5q112 0 184-53 36-28 58.5-63.5t31-83.5 10.5-79.5 2-88.5v-799q0-120-43-189-29-50-92-87t-162-37q-151 0-225 88-39 49-51 105t-12 134zm98 39q0-115 16-164 14-40 59.5-76t121.5-36q67 0 112 34 36 26 55.5 67t23 74.5 3.5 86.5v704q0 96-7 150.5t-28 93.5q-24 48-65 68-38 22-97 22-60 0-110-31-84-54-84-196v-797zm72 1227l172 223h192l-291-223h-73z"/><glyph unicode="Ô" horiz-adv-x="811" d="M111 309v815l1 32q1 31 6 67t15 65q30 87 105 131.5t172 42.5q112 0 184-53 36-28 58.5-63.5t31-83.5 10.5-79.5 2-88.5v-799q0-120-43-189-29-50-92-87t-162-37q-151 0-225 88-39 49-51 105t-12 134zm84 1266l159 223h103l149-221h-82l-121 139-124-141h-84zm14-1227q0-115 16-164 14-40 59.5-76t121.5-36q67 0 112 34 36 26 55.5 67t23 74.5 3.5 86.5v704q0 96-7 150.5t-28 93.5q-24 48-65 68-38 22-97 22-60 0-110-31-84-54-84-196v-797z"/><glyph unicode="Õ" horiz-adv-x="811" d="M111 309v815l1 32q1 31 6 67t15 65q30 87 105 131.5t172 42.5q112 0 184-53 36-28 58.5-63.5t31-83.5 10.5-79.5 2-88.5v-799q0-120-43-189-29-50-92-87t-162-37q-151 0-225 88-39 49-51 105t-12 134zm71 1313q18 26 30 41t32 34.5 42 28.5 48 9q35 0 86-21 63-28 86-28 21 0 37 8 7 4 14 9.5t11.5 10.5 15 17 18.5 20l31-27q-18-29-31-47-29-39-56-59.5t-65-20.5q-12 0-28.5 4.5t-49.5 16.5-51 18q-26 13-49 13-28 0-46-13t-42-41zm27-1274q0-115 16-164 14-40 59.5-76t121.5-36q67 0 112 34 36 26 55.5 67t23 74.5 3.5 86.5v704q0 96-7 150.5t-28 93.5q-24 48-65 68-38 22-97 22-60 0-110-31-84-54-84-196v-797z"/><glyph unicode="Ö" horiz-adv-x="811" d="M111 309v815l1 32q1 31 6 67t15 65q30 87 105 131.5t172 42.5q112 0 184-53 36-28 58.5-63.5t31-83.5 10.5-79.5 2-88.5v-799q0-120-43-189-29-50-92-87t-162-37q-151 0-225 88-39 49-51 105t-12 134zm88 1307v156h106v-156h-106zm10-1268q0-115 16-164 14-40 59.5-76t121.5-36q67 0 112 34 36 26 55.5 67t23 74.5 3.5 86.5v704q0 96-7 150.5t-28 93.5q-24 48-65 68-38 22-97 22-60 0-110-31-84-54-84-196v-797zm293 1268v156h106v-156h-106z"/><glyph unicode="×" horiz-adv-x="1142" d="M244 874l63 64 264-264 242 268 61-59-243-271 260-260-62-65-260 258-229-258-66 57 236 260z"/><glyph unicode="Ø" horiz-adv-x="811" d="M72-37l73 174q-19 38-26.5 69t-7.5 95v729q0 141 4 180 15 124 96 195 80 68 201 68 125 0 198-78 28-28 45-62l58 135 57-26-84-193q10-55 10-104v-830q0-66-14-127-27-101-102-152.5t-181-51.5q-60 0-105.5 16t-65 32-46.5 46l-57-137zm137 320l385 907q-1 2-2.5 15t-4.5 29.5-7 29.5q-12 38-36 63.5t-53.5 35.5-49 13.5-38.5 3.5q-62 0-104-28-56-36-73-95t-17-145v-829zm20-95q15-35 19-41 47-71 155-71 97 0 144 55 51 58 51 201v706z"/><glyph unicode="Ù" horiz-adv-x="811" d="M117 342v1104h98v-1120q0-132 33-183 48-73 160-73 76 0 118 34 17 13 28.5 26.5t19 36.5 11 37.5 5.5 52.5 2 55.5v1133.5h100v-1159q0-90-20-146-17-45-47.5-78.5t-60-49.5-66.5-25.5-57-11-40-1.5q-110 0-182 54-25 16-45 47-22 29-34.5 59t-17 73.5-5 60-.5 73.5zm26 1460h199l180-223h-65z"/><glyph unicode="Ú" horiz-adv-x="811" d="M117 342v1104h98v-1120q0-132 33-183 48-73 160-73 76 0 118 34 17 13 28.5 26.5t19 36.5 11 37.5 5.5 52.5 2 55.5v1133.5h100v-1159q0-90-20-146-17-45-47.5-78.5t-60-49.5-66.5-25.5-57-11-40-1.5q-110 0-182 54-25 16-45 47-22 29-34.5 59t-17 73.5-5 60-.5 73.5zm164 1233l172 223h192l-291-223h-73z"/><glyph unicode="Û" horiz-adv-x="811" d="M117 342v1104h98v-1120q0-132 33-183 48-73 160-73 76 0 118 34 17 13 28.5 26.5t19 36.5 11 37.5 5.5 52.5 2 55.5v1133.5h100v-1159q0-90-20-146-17-45-47.5-78.5t-60-49.5-66.5-25.5-57-11-40-1.5q-110 0-182 54-25 16-45 47-22 29-34.5 59t-17 73.5-5 60-.5 73.5zm78 1233l159 223h103l149-221h-82l-121 139-124-141h-84z"/><glyph unicode="Ü" horiz-adv-x="811" d="M117 342v1104h98v-1120q0-132 33-183 48-73 160-73 76 0 118 34 17 13 28.5 26.5t19 36.5 11 37.5 5.5 52.5 2 55.5v1133.5h100v-1159q0-90-20-146-17-45-47.5-78.5t-60-49.5-66.5-25.5-57-11-40-1.5q-110 0-182 54-25 16-45 47-22 29-34.5 59t-17 73.5-5 60-.5 73.5zm82 1274v156h106v-156h-106zm303 0v156h106v-156h-106z"/><glyph unicode="Ý" horiz-adv-x="724" d="M29 1446h106l232-680 229 680h111l-295-807v-639h-99v639zm209 129l172 223h194l-291-223h-75z"/><glyph unicode="Þ" horiz-adv-x="768" d="M119 0v1446h98v-240h125q101 0 150-8 51-10 88-33t56-49.5 30-65.5 13.5-69.5 2.5-73.5v-205q0-68-10-98-16-60-49-99.5t-79-57-86-23.5-91-6h-148v-418h-100zm98 502h164q35 0 59.5 3t53.5 15.5 47 35.5 30.5 64.5 12.5 100.5v123q0 101-10.5 155.5t-45.5 85.5q-20 17-53 25.5t-50.5 9-53.5.5l-154-2v-616z"/><glyph unicode="ß" horiz-adv-x="724" d="M111 0v1182q0 76 13.5 130.5t57.5 94.5q61 55 187 55 85 0 136.5-33t69.5-77q17-39 17-101v-164q0-42-8-73-7-27-22.5-48.5t-28-33-35.5-22-29-12.5-23-7q58-23 88-42t52-48q26-34 33.5-76t7.5-102v-453q0-37-9-72-33-114-169-114-34 0-66 12-78 29-78 131v160h60v-133q0-58 41-78 18-10 43-10 90 2 90 122v389q0 52-2 80.5t-17 69.5-45 66q-21 18-48 28.5t-47 13-56 5.5v88q32 1 48.5 3t39 10.5 41.5 25.5q24 20 36 47t13.5 46.5 1.5 57.5v92q0 58-6 82-26 86-136 86-55 0-92-18-18-9-31-21.5t-20.5-31.5-12-31.5-6-39.5-1.5-35.5v-1200.5h-88z"/><glyph unicode="à" d="M57 242q0 89 37 161 17 31 40 57t54 47.5 54.5 35 64 34.5 58.5 31q54 31 90 60v116q0 39-1 57.5t-12.5 47.5-35.5 45q-25 18-82 18-89 0-117-65-24-50-19-174h-88q0 96 4 135t21 76q50 112 211 112 66 0 121-28 55-31 71.5-78t16.5-121v-692q1-11 5.5-18t8.5-10.5 15-5 14.5-1.5h17.5v-82q-51 0-77 6t-44 23q-19 16-28 51-66-52-120-68-38-12-79-12-101 0-151 69t-50 173zm25 1147h199l178-224h-68zm63-1149q0-20 3.5-40t15.5-50 42-49 75-19q55 0 93.5 24t82.5 72v393q-31-25-66-43-20-12-56.5-31t-45.5-24q-74-45-109-98.5t-35-134.5z"/><glyph unicode="á" d="M57 242q0 89 37 161 17 31 40 57t54 47.5 54.5 35 64 34.5 58.5 31q54 31 90 60v116q0 39-1 57.5t-12.5 47.5-35.5 45q-25 18-82 18-89 0-117-65-24-50-19-174h-88q0 96 4 135t21 76q50 112 211 112 66 0 121-28 55-31 71.5-78t16.5-121v-692q1-11 5.5-18t8.5-10.5 15-5 14.5-1.5h17.5v-82q-51 0-77 6t-44 23q-19 16-28 51-66-52-120-68-38-12-79-12-101 0-151 69t-50 173zm88-2q0-20 3.5-40t15.5-50 42-49 75-19q55 0 93.5 24t82.5 72v393q-31-25-66-43-20-12-56.5-31t-45.5-24q-74-45-109-98.5t-35-134.5zm70 921l172 223h193l-291-223h-74z"/><glyph unicode="â" d="M57 242q0 89 37 161 17 31 40 57t54 47.5 54.5 35 64 34.5 58.5 31q54 31 90 60v116q0 39-1 57.5t-12.5 47.5-35.5 45q-25 18-82 18-89 0-117-65-24-50-19-174h-88q0 96 4 135t21 76q50 112 211 112 66 0 121-28 55-31 71.5-78t16.5-121v-692q1-11 5.5-18t8.5-10.5 15-5 14.5-1.5h17.5v-82q-51 0-77 6t-44 23q-19 16-28 51-66-52-120-68-38-12-79-12-101 0-151 69t-50 173zm76 921l156 223h104l148-223h-80l-119 142-127-142h-82zm12-923q0-20 3.5-40t15.5-50 42-49 75-19q55 0 93.5 24t82.5 72v393q-31-25-66-43-20-12-56.5-31t-45.5-24q-74-45-109-98.5t-35-134.5z"/><glyph unicode="ã" d="M57 242q0 89 37 161 17 31 40 57t54 47.5 54.5 35 64 34.5 58.5 31q54 31 90 60v116q0 39-1 57.5t-12.5 47.5-35.5 45q-25 18-82 18-89 0-117-65-24-50-19-174h-88q0 96 4 135t21 76q50 112 211 112 66 0 121-28 55-31 71.5-78t16.5-121v-692q1-11 5.5-18t8.5-10.5 15-5 14.5-1.5h17.5v-82q-51 0-77 6t-44 23q-19 16-28 51-66-52-120-68-38-12-79-12-101 0-151 69t-50 173zm62 968q22 34 39 54.5t47.5 39.5 64.5 19q39 0 84-20 8-3 26-11.5t32.5-13 27.5-4.5q24 0 39 10 20 11 58 55l32-26q-5-8-16-23.5t-16-23.5q-29-39-55.5-59.5t-63.5-20.5q-13 0-30.5 5t-48.5 17.5-50 18.5q-30 10-49 10-28 0-47.5-13.5t-42.5-39.5zm26-970q0-20 3.5-40t15.5-50 42-49 75-19q55 0 93.5 24t82.5 72v393q-31-25-66-43-20-12-56.5-31t-45.5-24q-74-45-109-98.5t-35-134.5z"/><glyph unicode="ä" d="M57 242q0 89 37 161 17 31 40 57t54 47.5 54.5 35 64 34.5 58.5 31q54 31 90 60v116q0 39-1 57.5t-12.5 47.5-35.5 45q-25 18-82 18-89 0-117-65-24-50-19-174h-88q0 96 4 135t21 76q50 112 211 112 66 0 121-28 55-31 71.5-78t16.5-121v-692q1-11 5.5-18t8.5-10.5 15-5 14.5-1.5h17.5v-82q-51 0-77 6t-44 23q-19 16-28 51-66-52-120-68-38-12-79-12-101 0-151 69t-50 173zm88-2q0-20 3.5-40t15.5-50 42-49 75-19q55 0 93.5 24t82.5 72v393q-31-25-66-43-20-12-56.5-31t-45.5-24q-74-45-109-98.5t-35-134.5zm41 958v158h99v-158h-99zm203 0v158h98v-158h-98z"/><glyph unicode="å" d="M57 242q0 89 37 161 17 31 40 57t54 47.5 54.5 35 64 34.5 58.5 31q54 31 90 60v116q0 39-1 57.5t-12.5 47.5-35.5 45q-25 18-82 18-89 0-117-65-24-50-19-174h-88q0 96 4 135t21 76q50 112 211 112 66 0 121-28 55-31 71.5-78t16.5-121v-692q1-11 5.5-18t8.5-10.5 15-5 14.5-1.5h17.5v-82q-51 0-77 6t-44 23q-19 16-28 51-66-52-120-68-38-12-79-12-101 0-151 69t-50 173zm88-2q0-20 3.5-40t15.5-50 42-49 75-19q55 0 93.5 24t82.5 72v393q-31-25-66-43-20-12-56.5-31t-45.5-24q-74-45-109-98.5t-35-134.5zm58 1022q0 57 39.5 96t95.5 39 95.5-40.5 39.5-96.5q0-57-39.5-96.5t-95.5-39.5q-55 0-96 41-39 39-39 97zm45-2q0-38 26-64 27-27 64-27 38 0 64 28t26 65-26.5 63.5-63.5 26.5q-38-1-64-28t-26-64z"/><glyph unicode="æ" horiz-adv-x="1024" d="M61 240q0 95 36 161t114 117q25 17 117 64 56 29 139 82v161q0 87-61 115-34 14-68 14-39 0-76-20-16-9-28-22t-19-32.5-11-32-5.5-39.5-1.5-34v-57h-86v74q0 167 110 219 55 22 121 22 105 0 158-53 15-15 24-27l25 25q59 57 162 57 48 0 86-12t62-28.5 41-45 25-49.5 12.5-54.5 4.5-47.5v-271h-389v-215q0-89 15.5-134t56.5-73q36-26 82-26 40 0 67 16 83 39 82 159v99h88v-63q0-127-37-189-22-37-55-61-62-45-141-45-112 0-174 69-17 21-43 58-10-20-37-47-14-14-35.5-29.5t-64-32-85.5-16.5q-36 0-70 11t-67.5 36-53.5 75.5-20 121.5zm86 0q0-35 13-74 30-88 133-88 39 0 70.5 12.5t52 36.5 29 38 19.5 36l3 6v368q-26-19-46-32t-29-18-39.5-20.5-45.5-23.5q-54-29-88-63t-53-86q-19-49-19-92zm406 360h303v180q0 56-12 93t-51 59-84 22q-82 0-123-59-19-26-26-58.5t-7-91.5v-145z"/><glyph unicode="ç" d="M82 295v475q0 65 16 113.5t40.5 76 59 44.5 65.5 22 65 4q47-1 84.5-14.5t61-31.5 40-46.5 24.5-50 12-52 4.5-43.5.5-32v-96h-86v77q0 37-1.5 60.5t-15 60.5-38.5 60q-37 32-92 32-44 0-75-18t-45.5-40.5-22.5-54-8.5-46-.5-29.5v-461q0-39 1.5-64t10.5-59.5 25.5-55 48-35.5 76.5-15q143 0 143 168v149h88v-133q0-92-23-143-48-106-192-121l-2-47q15-4 30.5-10t45.5-22 50-44.5 22-65.5q1-19-6-40.5t-22-43.5-46-36.5-72-14.5q-28 0-60.5 8.5t-50 16.5-45.5 23l-28 14 39 47q5-3 20.5-11t23-11.5 19.5-9 22.5-7.5 20.5-2q40-1 59 20.5t19 46.5q0 22-11 38.5t-32 26-35 14-35 8.5l7 102q-53 9-91 31.5t-58.5 49.5-32 67-14.5 72.5-3 78.5z"/><glyph unicode="è" d="M59 1389h199l178-224h-65zm29-1139v541q0 53 12 96 8 26 21.5 49t38.5 47 66.5 38.5 95.5 14.5q132 0 196-90 20-31 29.5-77t10.5-72.5 1-83.5v-207h-385v-254q0-43 8-74 29-100 146-100 63 0 102 37 21 21 29 45 3 7 5 14.5t3.5 17.5 2.5 17 1.5 19.5 1 20 .5 24v85.5h86v-116q0-52-9-88.5t-36-71.5q-63-84-192-84-48 0-89 12-32 9-71 40t-58 85q-16 41-16 115zm86 330h297v188q0 118-57 162-39 28-90 28-55 0-91-28-37-29-48-69.5t-11-100.5v-180z"/><glyph unicode="é" d="M88 250v541q0 53 12 96 8 26 21.5 49t38.5 47 66.5 38.5 95.5 14.5q132 0 196-90 20-31 29.5-77t10.5-72.5 1-83.5v-207h-385v-254q0-43 8-74 29-100 146-100 63 0 102 37 21 21 29 45 3 7 5 14.5t3.5 17.5 2.5 17 1.5 19.5 1 20 .5 24v85.5h86v-116q0-52-9-88.5t-36-71.5q-63-84-192-84-48 0-89 12-32 9-71 40t-58 85q-16 41-16 115zm86 330h297v188q0 118-57 162-39 28-90 28-55 0-91-28-37-29-48-69.5t-11-100.5v-180zm19 581l172 223h194l-293-223h-73z"/><glyph unicode="ê" d="M88 250v541q0 53 12 96 8 26 21.5 49t38.5 47 66.5 38.5 95.5 14.5q132 0 196-90 20-31 29.5-77t10.5-72.5 1-83.5v-207h-385v-254q0-43 8-74 29-100 146-100 63 0 102 37 21 21 29 45 3 7 5 14.5t3.5 17.5 2.5 17 1.5 19.5 1 20 .5 24v85.5h86v-116q0-52-9-88.5t-36-71.5q-63-84-192-84-48 0-89 12-32 9-71 40t-58 85q-16 41-16 115zm23 913l157 223h105l147-223h-80l-121 142-124-142h-84zm63-583h297v188q0 118-57 162-39 28-90 28-55 0-91-28-37-29-48-69.5t-11-100.5v-180z"/><glyph unicode="ë" d="M88 250v541q0 53 12 96 8 26 21.5 49t38.5 47 66.5 38.5 95.5 14.5q132 0 196-90 20-31 29.5-77t10.5-72.5 1-83.5v-207h-385v-254q0-43 8-74 29-100 146-100 63 0 102 37 21 21 29 45 3 7 5 14.5t3.5 17.5 2.5 17 1.5 19.5 1 20 .5 24v85.5h86v-116q0-52-9-88.5t-36-71.5q-63-84-192-84-48 0-89 12-32 9-71 40t-58 85q-16 41-16 115zm76 948v158h98v-158h-98zm10-618h297v188q0 118-57 162-39 28-90 28-55 0-91-28-37-29-48-69.5t-11-100.5v-180zm193 618v158h98v-158h-98z"/><glyph unicode="ì" horiz-adv-x="299" d="M-111 1389h199l178-224h-67zm217-1389v1032h89v-1032h-89z"/><glyph unicode="í" horiz-adv-x="299" d="M23 1161l172 223h192l-291-223h-73zm83-1161v1032h89v-1032h-89z"/><glyph unicode="î" horiz-adv-x="299" d="M-59 1163l157 223h103l147-223h-80l-118 142-125-142h-84zm165-1163v1032h89v-1032h-89z"/><glyph unicode="ï" horiz-adv-x="299" d="M-6 1198v158h98v-158h-98zm112-1198v1032h89v-1032h-89zm91 1198v158h98v-158h-98z"/><glyph unicode="ð" d="M80 248v540q0 60 14 99 18 50 53 83.5t74 46 60 16 36 3.5q52 0 87.5-17.5t72.5-66.5q-5 60-10.5 95.5t-22.5 84-47 93.5l-211-78-28 61 196 76q-14 17-57.5 61t-83.5 74l72 37q2-2 20.5-18t28-24.5 27-25.5 34-35.5 33.5-39.5l131 49 29-64-117-45q54-93 73-186t19-272l-2-504q0-36-1-57t-7.5-57.5-19-60.5-38.5-51-63-45q-49-24-115-24-65 0-125 28t-92 93q-20 43-20 131zm87.5 512.5q.5-11.5.5-12.5v-498q0-18 1-32.5t9-43 23-47.5 46.5-33.5 74.5-13.5q151 4 151 178v514q0 1-.5 14t-1.5 24-4.5 28.5-9 31.5-16.5 29.5-25.5 26-37 17.5-50.5 7q-26 0-47.5-5t-37.5-13-28-20.5-20-24-13.5-27.5-8.5-28-4-28l-1.5-24v-19.5z"/><glyph unicode="ñ" horiz-adv-x="681" d="M113 0v1030h86v-98q15 25 39 49 61 61 151 61 66-2 116-35t68-96q11-40 11-84v-827h-86v825l-3 24q-3 24-8 40-30 80-116 78-91 0-146-78-12-16-26-51v-838h-86zm6 1210q22 34 39 54.5t47.5 39.5 64.5 19q39 0 84-20 8-3 26-11.5t32.5-13 27.5-4.5q24 0 39 10 20 11 58 55l32-26q-5-8-16-23.5t-16-23.5q-29-39-55.5-59.5t-63.5-20.5q-13 0-30.5 5t-48.5 17.5-50 18.5q-30 10-49 10-28 0-47.5-13.5t-42.5-39.5z"/><glyph unicode="ò" d="M59 1389h199l178-224h-65zm21-1141v540q0 52 8 86.5t35 69.5q65 92 205 92 110 0 172-59 30-30 47-76 14-41 14-119v-491q0-85-14-133-15-52-46.5-88t-69.5-50-64-19-50-5q-71 0-132.5 32.5t-86.5 94.5q-18 44-18 125zm88 2q0-41 6-68 13-51 51-76.5t92-25.5q107 0 142 88 14 35 14 90v516q0 53-11.5 90t-47.5 62q-32 24-86 24-63 0-99-28-29-21-43-52.5t-16-54.5-2-67v-498z"/><glyph unicode="ó" d="M80 248v540q0 52 8 86.5t35 69.5q65 92 205 92 110 0 172-59 30-30 47-76 14-41 14-119v-491q0-85-14-133-15-52-46.5-88t-69.5-50-64-19-50-5q-71 0-132.5 32.5t-86.5 94.5q-18 44-18 125zm88 2q0-41 6-68 13-51 51-76.5t92-25.5q107 0 142 88 14 35 14 90v516q0 53-11.5 90t-47.5 62q-32 24-86 24-63 0-99-28-29-21-43-52.5t-16-54.5-2-67v-498zm25 911l172 223h194l-293-223h-73z"/><glyph unicode="ô" d="M80 248v540q0 52 8 86.5t35 69.5q65 92 205 92 110 0 172-59 30-30 47-76 14-41 14-119v-491q0-85-14-133-15-52-46.5-88t-69.5-50-64-19-50-5q-71 0-132.5 32.5t-86.5 94.5q-18 44-18 125zm31 915l157 223h105l147-223h-80l-121 142-124-142h-84zm57-913q0-41 6-68 13-51 51-76.5t92-25.5q107 0 142 88 14 35 14 90v516q0 53-11.5 90t-47.5 62q-32 24-86 24-63 0-99-28-29-21-43-52.5t-16-54.5-2-67v-498z"/><glyph unicode="õ" d="M80 248v540q0 52 8 86.5t35 69.5q65 92 205 92 110 0 172-59 30-30 47-76 14-41 14-119v-491q0-85-14-133-15-52-46.5-88t-69.5-50-64-19-50-5q-71 0-132.5 32.5t-86.5 94.5q-18 44-18 125zm16 962q18 26 30 41t32 34.5 42 28.5 48 9q41 0 86-20 8-3 26-11.5t32.5-13 27.5-4.5q22 0 37 10 6 3 11 6t10.5 9 9.5 10 13 14 15 16l31-26q-5-8-15.5-23.5t-15.5-23.5q-29-39-56-59.5t-65-20.5q-12 0-29 5.5t-48 17-52 18.5q-20 10-47 10-29 0-48-13t-42-40zm72-960q0-41 6-68 13-51 51-76.5t92-25.5q107 0 142 88 14 35 14 90v516q0 53-11.5 90t-47.5 62q-32 24-86 24-63 0-99-28-29-21-43-52.5t-16-54.5-2-67v-498z"/><glyph unicode="ö" d="M80 248v540q0 52 8 86.5t35 69.5q65 92 205 92 110 0 172-59 30-30 47-76 14-41 14-119v-491q0-85-14-133-15-52-46.5-88t-69.5-50-64-19-50-5q-71 0-132.5 32.5t-86.5 94.5q-18 44-18 125zm88 2q0-41 6-68 13-51 51-76.5t92-25.5q107 0 142 88 14 35 14 90v516q0 53-11.5 90t-47.5 62q-32 24-86 24-63 0-99-28-29-21-43-52.5t-16-54.5-2-67v-498zm2 948v158h98v-158h-98zm203 0v158h98v-158h-98z"/><glyph unicode="÷" horiz-adv-x="1144" d="M174 563v86h799v-86h-799zm350-278v151h101v-151h-101zm0 489v152h101v-152h-101z"/><glyph unicode="ø" d="M45 12l55 109q-1 5-4.5 15.5t-4.5 14-3.5 11.5-3 11.5-2.5 11-2 12-1 12-1 15v536.5q0 146 67 211 65 65 183 65 92 0 153-45 22-15 39-41l45 84 37-20-59-115q1-2 2-7 13-40 14-85v-561q0-56-16-103-16-48-49-81t-70.5-45-64-16-48.5-3q-67 0-112 22-21 9-39 21-8 6-15 14t-12.5 14.5-7.5 8.5l-45-86zm121 240l299 586q-7 24-12.5 37t-20.5 34-42.5 31-67.5 10q-78 0-117-47-25-29-32-63.5t-7-85.5v-502zm10-76q8-32 21-45 37-53 120-53 60 0 97 28 22 17 35 40t17.5 57 5.5 52 1 56v447z"/><glyph unicode="ù" horiz-adv-x="681" d="M82 1389h199l178-224h-68zm20-1153v794h86v-762q0-148 78-186 20-12 58-12 80 0 125 63 19 27 34 70v827h88v-1030h-88v96q-28-35-32-39-66-63-154-63-45 0-86.5 20t-67.5 56q-41 54-41 166z"/><glyph unicode="ú" horiz-adv-x="681" d="M102 236v794h86v-762q0-148 78-186 20-12 58-12 80 0 125 63 19 27 34 70v827h88v-1030h-88v96q-28-35-32-39-66-63-154-63-45 0-86.5 20t-67.5 56q-41 54-41 166zm113 925l172 223h193l-291-223h-74z"/><glyph unicode="û" horiz-adv-x="681" d="M102 236v794h86v-762q0-148 78-186 20-12 58-12 80 0 125 63 19 27 34 70v827h88v-1030h-88v96q-28-35-32-39-66-63-154-63-45 0-86.5 20t-67.5 56q-41 54-41 166zm31 927l156 223h104l148-223h-80l-119 142-127-142h-82z"/><glyph unicode="ü" horiz-adv-x="681" d="M102 236v794h86v-762q0-148 78-186 20-12 58-12 80 0 125 63 19 27 34 70v827h88v-1030h-88v96q-28-35-32-39-66-63-154-63-45 0-86.5 20t-67.5 56q-41 54-41 166zm84 962v158h99v-158h-99zm203 0v158h98v-158h-98z"/><glyph unicode="ý" horiz-adv-x="598" d="M18-336l2 86q142-17 191 82 11 22 18 57l27 119-225 1022h88l180-856 182 856h92l-264-1147q-13-53-27.5-87.5t-43.5-65.5-72-46.5-71-17.5-77-2zm154 1497l172 223h193l-291-223h-74z"/><glyph unicode="þ" horiz-adv-x="681" d="M111-334v1780h82v-512q85 104 190 106 71 0 115-34 31-24 50-56t26-72.5 8.5-65 1.5-67.5v-512q0-66-19-116.5t-76-89.5q-54-33-114-33-107 0-176 90v-418h-88zm88 527q13-37 35.5-62.5t48-36 43-14.5 32.5-4q42 0 71.5 17.5t41.5 42.5 20 52 5.5 47-.5 27v539q0 84-40.5 122t-93.5 38q-18 0-37.5-4.5t-44.5-17-47-41.5-34-71v-634z"/><glyph unicode="ÿ" horiz-adv-x="598" d="M18-336l2 86q142-17 191 82 11 22 18 57l27 119-225 1022h88l180-856 182 856h92l-264-1147q-13-53-27.5-87.5t-43.5-65.5-72-46.5-71-17.5-77-2zm146 1534v158h98v-158h-98zm203 0v158h98v-158h-98z"/><glyph unicode="Œ" horiz-adv-x="1110" d="M102 283v833q0 109 22.5 179.5t94.5 119.5q67 47 172 47 54 0 98-15t62.5-29 44.5-38v66h473v-88h-377v-565h334v-86h-332v-619h377v-88h-473v82q-23-28-39-41-76-61-186-61-90 0-160 45-111 74-111 258zm97-.5q0-12.5 3.5-45t10-49.5 20-39.5 33.5-39.5q51-43 123-43 40 0 82 16 85 38 113 117 14 36 14 90v772q0 41-1 67t-7.5 67-18 67.5-35 53.5-57.5 42q-48 18-92 18-94-1-141-58.5t-47-152.5v-882.5z"/><glyph unicode="œ" horiz-adv-x="1024" d="M86 264v467q0 108 10 147 18 72 78 111 62 43 150 43 107 0 168-61 4-5 15-19.5t15-19.5q10 20 33 43 62 59 168 59 84 0 139-41 30-23 48.5-53t25.5-70.5 8.5-66 1.5-73.5v-208h-385v-216q0-51 2-79t18.5-65.5 49.5-59.5q36-26 86-26 51 0 82 22t43 49q16 32 16 93v106h88v-90q0-77-14-123-16-55-66.5-98.5t-144.5-42.5q-106 0-166 57-19 19-41 62-17-25-27-37-71-82-180-82-66 0-123 31-33 18-54 44.5t-30 61.5-11.5 63.5-2.5 71.5zm86 55q0-98 10.5-143t48.5-74q35-26 86-26 81 0 121 57 22 29 28.5 61.5t6.5 81.5v494q0 182-149 182-65 0-100.5-33.5t-43.5-70.5q-8-27-8-78v-451zm387 277h299v168q0 74-16 113-32 77-125 77-36 0-65-12.5t-45.5-32-25-36-12.5-31.5q-10-34-10-76v-170z"/><glyph unicode="Ÿ" horiz-adv-x="724" d="M29 1446h106l232-680 229 680h111l-295-807v-639h-99v639zm131 170v156h106v-156h-106zm303 0v156h106v-156h-106z"/><glyph unicode="ˆ" horiz-adv-x="468" d="M29 1163l157 223h103l151-223h-82l-118 142-125-142h-86z"/><glyph unicode="˜" horiz-adv-x="468" d="M8 1210q18 26 30 41t32 34.5 42 28.5 48 9q38 0 86-20 4-2 24.5-11t34.5-13.5 27-4.5q22 0 37 10 5 2 9.5 5.5t8 6 9 8.5 8 9 10.5 12 12 14l35-26q-11-18-33-47-20-26-33-40t-36-27-50-13q-13 0-30 5.5t-47.5 17-51.5 18.5q-20 10-49 10-19 0-36.5-8.5t-26.5-17-27-27.5z"/><glyph horiz-adv-x="901"/><glyph horiz-adv-x="1802"/><glyph horiz-adv-x="901"/><glyph horiz-adv-x="1802"/><glyph horiz-adv-x="600"/><glyph horiz-adv-x="450"/><glyph horiz-adv-x="300"/><glyph horiz-adv-x="300"/><glyph horiz-adv-x="225"/><glyph horiz-adv-x="360"/><glyph horiz-adv-x="100"/><glyph unicode="‐" horiz-adv-x="507" d="M72 555v86h362v-86h-362z"/><glyph unicode="‑" horiz-adv-x="507" d="M72 555v86h362v-86h-362z"/><glyph unicode="‒" horiz-adv-x="507" d="M72 555v86h362v-86h-362z"/><glyph unicode="–" horiz-adv-x="727" d="M72 555v86h581v-86h-581z"/><glyph unicode="—" horiz-adv-x="1007" d="M72 561v86h862v-86h-862z"/><glyph unicode="‘" horiz-adv-x="299" d="M111 1075v187q0 72 18 113.5t74 70.5v-45q-24-17-35.5-42t-12.5-41.5-1-55.5h49v-187h-92z"/><glyph unicode="’" horiz-adv-x="299" d="M102 1075v45q34 24 43 55t9 85h-50v186h93v-186q0-72-19-114t-76-71z"/><glyph unicode="‚" horiz-adv-x="299" d="M102-139q24 16 36 40.5t14 43.5 2 55h-50v186h93v-186q0-73-18.5-114t-76.5-70v45z"/><glyph unicode="“" horiz-adv-x="512" d="M88 1075v187q0 73 17.5 115.5t74.5 70.5v-45q-24-17-35.5-42.5t-12.5-42.5-1-56h49v-187h-92zm223 0v187q0 72 18 114.5t74 71.5v-45q-18-14-29-28.5t-15-36-4.5-33.5-.5-43h49v-187h-92z"/><glyph unicode="”" horiz-adv-x="512" d="M96 1075v45q24 16 36 41t13.5 43.5 1.5 55.5h-49v186h92v-186q0-72-18.5-114t-75.5-71zm223 0v45q34 24 43 55t9 85h-52v186h93v-186q0-73-18-114.5t-75-70.5z"/><glyph unicode="„" horiz-adv-x="512" d="M96-139q25 17 36.5 41.5t13 41 1.5 56.5h-49v186h92v-186q0-73-18-114t-76-70v45zm223 139v186h93v-186q0-72-18-113.5t-75-70.5v45q24 16 36 40.5t14 43.5 2 55h-52z"/><glyph unicode="•" horiz-adv-x="681" d="M195 524v408h292l-2-408h-290z"/><glyph unicode="…" horiz-adv-x="2048" d="M289 0v133h106v-133h-106zm682 0v133h106v-133h-106zm682 0v133h104v-133h-104z"/><glyph horiz-adv-x="360"/><glyph unicode="‹" horiz-adv-x="512" d="M72 600l254 205h123l-250-205 239-205h-114z"/><glyph unicode="›" horiz-adv-x="512" d="M55 391l264 207-249 203h123l247-201-258-209h-127z"/><glyph horiz-adv-x="450"/><glyph unicode="€" horiz-adv-x="790" d="M53 635l17 78h106v104h-123l17 78h106v176q0 74 2 105 6 130 72 202 75 84 219 84 93 0 153.5-27.5t110.5-91.5l-33-102q-50 71-102 101t-127 30q-58 0-102-20.5t-64-57.5q-35-60-35-213v-186h367l-25-78h-342v-104h324l-23-78h-299v-205q0-112 5.5-163t21.5-91q43-106 180-106 74 0 134 30t118 97v-129q-64-49-123.5-70t-136.5-21q-181 0-254 129-23 40-32 88.5t-9 133.5v307h-123z"/><glyph unicode="™" horiz-adv-x="1052" d="M45 1372v74h332v-74h-123v-606h-82v606h-127zm393 74h117l123-606 123 606h119l2-680h-80l8 614-127-614h-90l-127 614 14-614h-80z"/><glyph unicode="◼" horiz-adv-x="1034" d="M0 0v1034h1034v-1034h-1034z"/></font>
</defs>
</svg>
